<?xml version="1.0" encoding="UTF-8" standalone="no"?>
<!-- Created with Inkscape (http://www.inkscape.org/) -->

<svg
   width="16"
   height="16"
   viewBox="0 0 1 1"
   version="1.1"
   id="svg1"
   xml:space="preserve"
   xmlns="http://www.w3.org/2000/svg"
   xmlns:svg="http://www.w3.org/2000/svg"
   xmlns:rdf="http://www.w3.org/1999/02/22-rdf-syntax-ns#"
   xmlns:cc="http://creativecommons.org/ns#"
   xmlns:dc="http://purl.org/dc/elements/1.1/"><title
     id="title1">GodotProjectileEngineIcons</title><defs
     id="defs1"><linearGradient
       id="swatch8"
       gradientTransform="matrix(0,0,0,0,1.7507791,1.0442409)"><stop
         style="stop-color:#4adae9;stop-opacity:1;"
         offset="0"
         id="stop8" /></linearGradient><linearGradient
       id="swatch7"
       gradientTransform="matrix(0.00250671,0,0,0.00248538,1.3786375,-1.1517806)"><stop
         style="stop-color:#ffffff;stop-opacity:1;"
         offset="0"
         id="stop7" /></linearGradient></defs><g
     id="g68"
     style="display:inline"
     transform="matrix(1,0,0,-1,-0.9375,1.25)"><rect
       style="display:inline;fill:none;fill-opacity:1;stroke:none;stroke-width:0.0625;stroke-opacity:1"
       id="rect68"
       width="1"
       height="1"
       x="0.9375"
       y="-1.25"
       transform="scale(1,-1)" /><path
       style="display:none;fill:none;stroke:#4adae9;stroke-width:0.093738;stroke-linecap:round;stroke-linejoin:round;stroke-dasharray:none;stroke-opacity:1;paint-order:normal"
       d="M 0.984369,0.296869 V 1.203131 H 1.890631 V 0.296869 Z"
       id="path39-3" /><g
       id="g121"
       style="display:inline;stroke:#4adae9;stroke-opacity:1"
       transform="translate(0,0.03125)"><rect
         style="display:inline;fill:none;stroke:#4adae9;stroke-width:0.0625107;stroke-linecap:square;stroke-linejoin:round;stroke-dasharray:none;stroke-opacity:1;paint-order:normal"
         id="rect70"
         width="0.49998933"
         height="0.56248927"
         x="1.4062554"
         y="0.25000536" /><path
         style="display:inline;fill:none;stroke:#4adae9;stroke-width:0.0625;stroke-linecap:round;stroke-linejoin:round;stroke-dasharray:none;stroke-opacity:1;paint-order:normal"
         d="m 1.53125,0.5625 h 0.25"
         id="path74" /><path
         style="display:inline;fill:none;stroke:#4adae9;stroke-width:0.0625;stroke-linecap:round;stroke-linejoin:round;stroke-dasharray:none;stroke-opacity:1;paint-order:normal"
         d="m 1.5215825,0.6875 h 0.25"
         id="path76" /><path
         style="display:inline;fill:none;stroke:#4adae9;stroke-width:0.0625;stroke-linecap:round;stroke-linejoin:round;stroke-dasharray:none;stroke-opacity:1;paint-order:normal"
         d="m 1.53125,0.4375 h 0.25"
         id="path77" /></g><g
       transform="matrix(2.1340171,0,0,-2.2425678,1.6249721,0.56246725)"
       id="g120"
       style="display:none;fill:none;fill-opacity:1;stroke:#4adae9;stroke-width:0.0392716;stroke-linecap:square;stroke-linejoin:miter;stroke-dasharray:none;stroke-opacity:1"><circle
         style="display:inline;fill:none;fill-opacity:1;stroke:#4adae9;stroke-width:0.0392716;stroke-linecap:square;stroke-linejoin:miter;stroke-dasharray:none;stroke-opacity:1"
         id="path120"
         cx="0"
         cy="0"
         r="0.09375" /><path
         style="display:inline;fill:none;fill-opacity:1;stroke:#4adae9;stroke-width:0.0392716;stroke-linecap:square;stroke-linejoin:miter;stroke-dasharray:none;stroke-opacity:1"
         d="M 0.06146,-0.01659 0.09079,-0.0245 0.09224,-0.02472 0.1268,-0.01153 V 0.01153 L 0.09224,0.02472 0.09079,0.0245 0.06146,0.01659 0.0451,0.04493 0.06662,0.06638 0.06752,0.06752 0.07338,0.10405 0.05342,0.11558 0.02472,0.09224 0.02418,0.09088 0.01637,0.06152 h -0.03274 l -0.00781,0.02936 -5.4e-4,0.00136 -0.0287,0.02334 -0.01996,-0.01153 0.00586,-0.03653 9e-4,-0.00114 L -0.0451,0.04493 -0.06146,0.01659 -0.09079,0.0245 -0.09224,0.02472 -0.1268,0.01153 v -0.02306 l 0.03456,-0.01319 0.00145,2.2e-4 0.02933,0.00791 0.01636,-0.02834 -0.02152,-0.02145 -9e-4,-0.00114 -0.00586,-0.03653 0.01996,-0.01153 0.0287,0.02334 5.4e-4,0.00136 0.00781,0.02936 h 0.03274 l 0.00781,-0.02936 5.4e-4,-0.00136 0.0287,-0.02334 0.01996,0.01153 -0.00586,0.03653 -9e-4,0.00114 -0.02152,0.02145 z"
         id="path119" /><ellipse
         style="display:none;fill:url(#swatch8);stroke:#4adae9;stroke-width:0.0694504;stroke-dasharray:none;stroke-opacity:1"
         id="circle121"
         cx="-0.88663048"
         cy="-1.4802616"
         transform="matrix(-0.3590593,-0.28652693,-0.29880847,0.34349728,-0.76146161,0.25081393)"
         rx="0.13887352"
         ry="0.13903594" /></g><circle
       style="display:inline;fill:#4adae9;fill-opacity:1;stroke:none;stroke-width:0.0937138;stroke-dasharray:none;stroke-opacity:1"
       id="circle42-7-0"
       cx="-0.27222431"
       cy="-1.5284142"
       transform="rotate(140.1999)"
       r="0.1875" /></g><metadata
     id="metadata1"><rdf:RDF><cc:Work
         rdf:about=""><dc:title>GodotProjectileEngineIcons</dc:title><cc:license
           rdf:resource="http://creativecommons.org/licenses/by/4.0/" /></cc:Work><cc:License
         rdf:about="http://creativecommons.org/licenses/by/4.0/"><cc:permits
           rdf:resource="http://creativecommons.org/ns#Reproduction" /><cc:permits
           rdf:resource="http://creativecommons.org/ns#Distribution" /><cc:requires
           rdf:resource="http://creativecommons.org/ns#Notice" /><cc:requires
           rdf:resource="http://creativecommons.org/ns#Attribution" /><cc:permits
           rdf:resource="http://creativecommons.org/ns#DerivativeWorks" /></cc:License></rdf:RDF></metadata></svg>
