<?xml version="1.0" encoding="UTF-8" standalone="no"?>
<!-- Created with Inkscape (http://www.inkscape.org/) -->

<svg
   width="16"
   height="16"
   viewBox="0 0 1 1"
   version="1.1"
   id="svg1"
   xml:space="preserve"
   xmlns="http://www.w3.org/2000/svg"
   xmlns:svg="http://www.w3.org/2000/svg"
   xmlns:rdf="http://www.w3.org/1999/02/22-rdf-syntax-ns#"
   xmlns:cc="http://creativecommons.org/ns#"
   xmlns:dc="http://purl.org/dc/elements/1.1/"><title
     id="title1">GodotProjectileEngineIcons</title><defs
     id="defs1"><linearGradient
       id="swatch8"
       gradientTransform="matrix(0,0,0,0,1.7507791,1.0442409)"><stop
         style="stop-color:#4adae9;stop-opacity:1;"
         offset="0"
         id="stop8" /></linearGradient><linearGradient
       id="swatch7"
       gradientTransform="matrix(0.00250671,0,0,0.00248538,1.3786375,-1.1517806)"><stop
         style="stop-color:#ffffff;stop-opacity:1;"
         offset="0"
         id="stop7" /></linearGradient></defs><g
     id="g143"
     style="display:inline"
     transform="matrix(1,0,0,-1,-1.375,1.125)"><rect
       style="display:inline;fill:none;fill-opacity:1;stroke:none;stroke-width:0.0625;stroke-opacity:1"
       id="rect143"
       width="1"
       height="1"
       x="1.375"
       y="-1.125"
       transform="scale(1,-1)" /><path
       fill="#8da5f3"
       d="m 1.8749375,1.0625 a 0.4375,0.4375 0 0 1 0,-0.875 0.4375,0.4375 0 0 1 0,0.875 z M 1.996875,0.979125 A 0.375,0.375 0 0 0 2.25,0.625 H 1.8125 A 0.125,0.125 0 0 1 1.753125,0.73125 c 0.084125,0.1268125 0.16275,0.2039375 0.24375,0.2479375 z M 1.570125,0.842875 C 1.579245,0.80225 1.5925,0.7626875 1.612875,0.725125 A 0.125,0.125 0 0 1 1.5624375,0.625 h -0.0625 A 0.375,0.375 0 0 0 1.570125,0.842875 Z M 1.6124375,0.525 a 0.125,0.125 0 0 1 0.15,0 c 0.092,-0.1266875 0.1705,-0.204 0.2375,-0.25 a 0.375,0.375 0 0 0 -0.446875,0.15625 c 0.015625,0.0375 0.03125,0.0625 0.059375,0.09375 z"
       id="path1-4"
       style="display:inline;fill:#4adae9;fill-opacity:1;stroke-width:0.0625" /></g><metadata
     id="metadata1"><rdf:RDF><cc:Work
         rdf:about=""><dc:title>GodotProjectileEngineIcons</dc:title><cc:license
           rdf:resource="http://creativecommons.org/licenses/by/4.0/" /></cc:Work><cc:License
         rdf:about="http://creativecommons.org/licenses/by/4.0/"><cc:permits
           rdf:resource="http://creativecommons.org/ns#Reproduction" /><cc:permits
           rdf:resource="http://creativecommons.org/ns#Distribution" /><cc:requires
           rdf:resource="http://creativecommons.org/ns#Notice" /><cc:requires
           rdf:resource="http://creativecommons.org/ns#Attribution" /><cc:permits
           rdf:resource="http://creativecommons.org/ns#DerivativeWorks" /></cc:License></rdf:RDF></metadata></svg>
